<svg width="50" height="14" viewBox="0 0 50 14" fill="none" xmlns="http://www.w3.org/2000/svg">
<path d="M2.96393 13.9474H0.327148V0.772705H2.96393V6.04627H8.22831V0.772705H10.8651V13.9474H8.22831V8.68305H2.96393V13.9474Z" fill="#D3D3D3"/>
<path d="M20.6552 13.9474H18.0276V9.82229C17.4457 9.67529 16.9098 9.43948 16.4198 9.11486C15.9359 8.79024 15.5194 8.40437 15.1703 7.95725C14.8212 7.50401 14.5486 7.00482 14.3526 6.4597C14.1628 5.90846 14.0678 5.32965 14.0678 4.72329V0.772705H16.7046V4.72329C16.7046 5.08466 16.772 5.42765 16.9067 5.75227C17.0476 6.07077 17.2375 6.34946 17.4763 6.58833C17.7152 6.8272 17.9939 7.01707 18.3124 7.15795C18.637 7.2927 18.98 7.36007 19.3414 7.36007C19.7028 7.36007 20.0427 7.2927 20.3612 7.15795C20.6858 7.01707 20.9676 6.8272 21.2064 6.58833C21.4453 6.34946 21.6321 6.07077 21.7669 5.75227C21.9077 5.42765 21.9782 5.08466 21.9782 4.72329V0.772705H24.6058V4.72329C24.6058 5.32965 24.5078 5.90846 24.3118 6.4597C24.1219 7.00482 23.8524 7.50401 23.5033 7.95725C23.1542 8.40437 22.7377 8.79024 22.2538 9.11486C21.7699 9.43948 21.2371 9.67529 20.6552 9.82229V13.9474Z" fill="#D3D3D3"/>
<path d="M37.8779 0.772705L33.5506 13.9474H30.9138L26.6049 0.772705H29.6L32.2276 9.56505L34.8644 0.772705H37.8779Z" fill="#D3D3D3"/>
<path d="M49.5881 13.9474H40.5569V0.772705H49.5881V3.40949H43.1937V6.04627H47.521V8.68305H43.1937V11.3107H49.5881V13.9474Z" fill="#D3D3D3"/>
</svg>
