<svg width="424" height="434" viewBox="0 0 424 434" fill="none" xmlns="http://www.w3.org/2000/svg">
<g opacity="0.11">
<path d="M0 11.1904C0 -2.13708 10.7742 -12.9412 24.0649 -12.9412C37.3555 -12.9412 48.1297 -2.13711 48.1297 11.1904V340.516C48.1297 353.843 37.3555 364.647 24.0649 364.647C10.7742 364.647 0 353.843 0 340.516V11.1904Z" fill="white"/>
<path d="M93.9676 -27.339C93.9676 -40.6665 104.742 -51.4706 118.032 -51.4706C131.323 -51.4706 142.097 -40.6665 142.097 -27.339V379.045C142.097 392.372 131.323 403.177 118.032 403.177C104.742 403.177 93.9676 392.372 93.9676 379.045V-27.339Z" fill="white"/>
<path d="M187.935 -65.8684C187.935 -79.1959 198.709 -90 212 -90C225.291 -90 236.065 -79.1959 236.065 -65.8684V128.604C236.065 141.931 225.291 152.735 212 152.735C198.709 152.735 187.935 141.931 187.935 128.604V-65.8684Z" fill="white"/>
<path d="M187.935 215.396C187.935 202.069 198.709 191.265 212 191.265C225.291 191.265 236.065 202.069 236.065 215.396V409.868C236.065 423.196 225.291 434 212 434C198.709 434 187.935 423.196 187.935 409.868V215.396Z" fill="white"/>
<path d="M424 11.1904C424 -2.13708 413.226 -12.9412 399.935 -12.9412C386.644 -12.9412 375.87 -2.13711 375.87 11.1904V340.516C375.87 353.843 386.644 364.647 399.935 364.647C413.226 364.647 424 353.843 424 340.516V11.1904Z" fill="white"/>
<path d="M330.032 -27.339C330.032 -40.6665 319.258 -51.4706 305.968 -51.4706C292.677 -51.4706 281.903 -40.6665 281.903 -27.339V379.045C281.903 392.372 292.677 403.177 305.968 403.177C319.258 403.177 330.032 392.372 330.032 379.045V-27.339Z" fill="white"/>
</g>
</svg>
