<svg width="248" height="94" viewBox="0 0 248 94" fill="none" xmlns="http://www.w3.org/2000/svg">
<path d="M242.378 9.42385C239.771 9.42385 237.658 7.31427 237.658 4.71201C237.658 2.10974 239.771 0.000185965 242.378 0.000185996C244.985 0.000186027 247.098 2.10974 247.098 4.71201C247.098 7.31427 244.985 9.42385 242.378 9.42385Z" fill="#AB7FE9"/>
<path d="M242.378 43.3176C239.771 43.3176 237.658 41.2081 237.658 38.6058C237.658 36.0035 239.771 33.894 242.378 33.894C244.985 33.894 247.098 36.0035 247.098 38.6058C247.098 41.2081 244.985 43.3176 242.378 43.3176Z" fill="#AB7FE9"/>
<path d="M242.378 77.2117C239.771 77.2117 237.658 75.1022 237.658 72.4999C237.658 69.8976 239.771 67.7881 242.378 67.7881C244.985 67.7881 247.098 69.8976 247.098 72.4999C247.098 75.1022 244.985 77.2117 242.378 77.2117Z" fill="#AB7FE9"/>
<path d="M242.378 111.106C239.771 111.106 237.658 108.996 237.658 106.394C237.658 103.792 239.771 101.682 242.378 101.682C244.985 101.682 247.098 103.792 247.098 106.394C247.098 108.996 244.985 111.106 242.378 111.106Z" fill="#AB7FE9"/>
<path d="M242.378 145C239.771 145 237.658 142.89 237.658 140.288C237.658 137.686 239.771 135.576 242.378 135.576C244.985 135.576 247.098 137.686 247.098 140.288C247.098 142.89 244.985 145 242.378 145Z" fill="#AB7FE9"/>
<path d="M208.427 9.42365C205.82 9.42365 203.707 7.31409 203.707 4.71182C203.707 2.10956 205.82 2.45438e-06 208.427 2.48546e-06C211.033 2.51655e-06 213.146 2.10956 213.146 4.71183C213.146 7.31409 211.033 9.42365 208.427 9.42365Z" fill="#AB7FE9"/>
<path d="M208.427 43.3176C205.82 43.3176 203.707 41.2081 203.707 38.6058C203.707 36.0035 205.82 33.894 208.427 33.894C211.033 33.894 213.146 36.0035 213.146 38.6058C213.146 41.2081 211.033 43.3176 208.427 43.3176Z" fill="#AB7FE9"/>
<path d="M208.427 77.2118C205.82 77.2118 203.707 75.1023 203.707 72.5C203.707 69.8977 205.82 67.7882 208.427 67.7882C211.033 67.7882 213.146 69.8977 213.146 72.5C213.146 75.1023 211.033 77.2118 208.427 77.2118Z" fill="#AB7FE9"/>
<path d="M208.427 111.106C205.82 111.106 203.707 108.996 203.707 106.394C203.707 103.792 205.82 101.682 208.427 101.682C211.033 101.682 213.146 103.792 213.146 106.394C213.146 108.996 211.033 111.106 208.427 111.106Z" fill="#AB7FE9"/>
<path d="M208.427 145C205.82 145 203.707 142.89 203.707 140.288C203.707 137.686 205.82 135.576 208.427 135.576C211.033 135.576 213.146 137.686 213.146 140.288C213.146 142.89 211.033 145 208.427 145Z" fill="#AB7FE9"/>
<path d="M174.476 9.42365C171.869 9.42365 169.756 7.31409 169.756 4.71182C169.756 2.10956 171.869 2.04952e-06 174.476 2.0806e-06C177.082 2.11169e-06 179.196 2.10956 179.196 4.71182C179.196 7.31409 177.082 9.42365 174.476 9.42365Z" fill="#AB7FE9"/>
<path d="M174.476 43.3176C171.869 43.3176 169.756 41.2081 169.756 38.6058C169.756 36.0035 171.869 33.894 174.476 33.894C177.082 33.894 179.196 36.0035 179.196 38.6058C179.196 41.2081 177.082 43.3176 174.476 43.3176Z" fill="#AB7FE9"/>
<path d="M174.476 77.2118C171.869 77.2118 169.756 75.1023 169.756 72.5C169.756 69.8977 171.869 67.7882 174.476 67.7882C177.082 67.7882 179.196 69.8977 179.196 72.5C179.196 75.1023 177.082 77.2118 174.476 77.2118Z" fill="#AB7FE9"/>
<path d="M174.476 111.106C171.869 111.106 169.756 108.996 169.756 106.394C169.756 103.792 171.869 101.682 174.476 101.682C177.082 101.682 179.196 103.792 179.196 106.394C179.196 108.996 177.082 111.106 174.476 111.106Z" fill="#AB7FE9"/>
<path d="M174.476 145C171.869 145 169.756 142.89 169.756 140.288C169.756 137.686 171.869 135.576 174.476 135.576C177.082 135.576 179.196 137.686 179.196 140.288C179.196 142.89 177.082 145 174.476 145Z" fill="#AB7FE9"/>
<path d="M140.524 9.42365C137.918 9.42365 135.805 7.31409 135.805 4.71182C135.805 2.10956 137.918 1.64465e-06 140.524 1.67574e-06C143.131 1.70682e-06 145.244 2.10956 145.244 4.71182C145.244 7.31409 143.131 9.42365 140.524 9.42365Z" fill="#AB7FE9"/>
<path d="M140.524 43.3176C137.918 43.3176 135.805 41.2081 135.805 38.6058C135.805 36.0035 137.918 33.894 140.524 33.894C143.131 33.894 145.244 36.0035 145.244 38.6058C145.244 41.2081 143.131 43.3176 140.524 43.3176Z" fill="#AB7FE9"/>
<path d="M140.524 77.2118C137.918 77.2118 135.805 75.1023 135.805 72.5C135.805 69.8977 137.918 67.7882 140.524 67.7882C143.131 67.7882 145.244 69.8977 145.244 72.5C145.244 75.1023 143.131 77.2118 140.524 77.2118Z" fill="#AB7FE9"/>
<path d="M140.524 111.106C137.918 111.106 135.805 108.996 135.805 106.394C135.805 103.792 137.918 101.682 140.524 101.682C143.131 101.682 145.244 103.792 145.244 106.394C145.244 108.996 143.131 111.106 140.524 111.106Z" fill="#AB7FE9"/>
<path d="M140.524 145C137.918 145 135.805 142.89 135.805 140.288C135.805 137.686 137.918 135.576 140.524 135.576C143.131 135.576 145.244 137.686 145.244 140.288C145.244 142.89 143.131 145 140.524 145Z" fill="#AB7FE9"/>
<path d="M106.574 9.42365C103.967 9.42365 101.854 7.31409 101.854 4.71182C101.854 2.10956 103.967 1.23979e-06 106.574 1.27088e-06C109.18 1.30196e-06 111.293 2.10956 111.293 4.71182C111.293 7.31409 109.18 9.42365 106.574 9.42365Z" fill="#AB7FE9"/>
<path d="M106.574 43.3176C103.967 43.3176 101.854 41.2081 101.854 38.6058C101.854 36.0035 103.967 33.894 106.574 33.894C109.18 33.894 111.293 36.0035 111.293 38.6058C111.293 41.2081 109.18 43.3176 106.574 43.3176Z" fill="#AB7FE9"/>
<path d="M106.574 77.2118C103.967 77.2118 101.854 75.1023 101.854 72.5C101.854 69.8977 103.967 67.7882 106.574 67.7882C109.18 67.7882 111.293 69.8977 111.293 72.5C111.293 75.1023 109.18 77.2118 106.574 77.2118Z" fill="#AB7FE9"/>
<path d="M106.574 111.106C103.967 111.106 101.854 108.996 101.854 106.394C101.854 103.792 103.967 101.682 106.574 101.682C109.18 101.682 111.293 103.792 111.293 106.394C111.293 108.996 109.18 111.106 106.574 111.106Z" fill="#AB7FE9"/>
<path d="M106.574 145C103.967 145 101.854 142.89 101.854 140.288C101.854 137.686 103.967 135.576 106.574 135.576C109.18 135.576 111.293 137.686 111.293 140.288C111.293 142.89 109.18 145 106.574 145Z" fill="#AB7FE9"/>
<path d="M72.6222 9.42365C70.0156 9.42365 67.9025 7.31409 67.9025 4.71182C67.9025 2.10956 70.0156 8.34928e-07 72.6222 8.66012e-07C75.2289 8.97096e-07 77.342 2.10956 77.342 4.71182C77.342 7.31409 75.2289 9.42365 72.6222 9.42365Z" fill="#AB7FE9"/>
<path d="M72.6222 43.3176C70.0156 43.3176 67.9025 41.2081 67.9025 38.6058C67.9025 36.0035 70.0156 33.894 72.6222 33.894C75.2289 33.894 77.342 36.0035 77.342 38.6058C77.342 41.2081 75.2289 43.3176 72.6222 43.3176Z" fill="#AB7FE9"/>
<path d="M72.6222 77.2117C70.0156 77.2117 67.9025 75.1022 67.9025 72.4999C67.9025 69.8976 70.0156 67.7881 72.6222 67.7881C75.2289 67.7881 77.342 69.8976 77.342 72.4999C77.342 75.1022 75.2289 77.2117 72.6222 77.2117Z" fill="#AB7FE9"/>
<path d="M72.6222 111.106C70.0156 111.106 67.9025 108.996 67.9025 106.394C67.9025 103.792 70.0156 101.682 72.6222 101.682C75.2289 101.682 77.342 103.792 77.342 106.394C77.342 108.996 75.2289 111.106 72.6222 111.106Z" fill="#AB7FE9"/>
<path d="M72.6222 145C70.0156 145 67.9025 142.89 67.9025 140.288C67.9025 137.686 70.0156 135.576 72.6222 135.576C75.2289 135.576 77.342 137.686 77.342 140.288C77.342 142.89 75.2289 145 72.6222 145Z" fill="#AB7FE9"/>
<path d="M38.6709 9.42365C36.0642 9.42365 33.9511 7.31409 33.9511 4.71182C33.9511 2.10956 36.0642 4.30061e-07 38.6709 4.61145e-07C41.2775 4.92229e-07 43.3906 2.10956 43.3906 4.71182C43.3906 7.31409 41.2775 9.42365 38.6709 9.42365Z" fill="#AB7FE9"/>
<path d="M38.6709 43.3176C36.0642 43.3176 33.9511 41.2081 33.9511 38.6058C33.9511 36.0035 36.0642 33.894 38.6709 33.894C41.2775 33.894 43.3906 36.0035 43.3906 38.6058C43.3906 41.2081 41.2775 43.3176 38.6709 43.3176Z" fill="#AB7FE9"/>
<path d="M38.6709 77.2118C36.0642 77.2118 33.9511 75.1023 33.9511 72.5C33.9511 69.8977 36.0642 67.7882 38.6709 67.7882C41.2775 67.7882 43.3906 69.8977 43.3906 72.5C43.3906 75.1023 41.2775 77.2118 38.6709 77.2118Z" fill="#AB7FE9"/>
<path d="M38.6709 111.106C36.0642 111.106 33.9511 108.996 33.9511 106.394C33.9511 103.792 36.0642 101.682 38.6709 101.682C41.2775 101.682 43.3906 103.792 43.3906 106.394C43.3906 108.996 41.2775 111.106 38.6709 111.106Z" fill="#AB7FE9"/>
<path d="M38.6709 145C36.0642 145 33.9511 142.89 33.9511 140.288C33.9511 137.686 36.0642 135.576 38.6709 135.576C41.2775 135.576 43.3906 137.686 43.3906 140.288C43.3906 142.89 41.2775 145 38.6709 145Z" fill="#AB7FE9"/>
<path d="M4.71977 9.42365C2.11312 9.42365 9.0434e-06 7.31409 9.30231e-06 4.71182C9.56123e-06 2.10956 2.11312 2.51987e-08 4.71977 5.62827e-08C7.32643 8.73668e-08 9.43955 2.10956 9.43955 4.71182C9.43955 7.31409 7.32643 9.42365 4.71977 9.42365Z" fill="#AB7FE9"/>
<path d="M4.71977 43.3176C2.11312 43.3176 8.63922e-06 41.2081 8.89813e-06 38.6058C9.15705e-06 36.0035 2.11312 33.894 4.71977 33.894C7.32643 33.894 9.43955 36.0035 9.43955 38.6058C9.43955 41.2081 7.32643 43.3176 4.71977 43.3176Z" fill="#AB7FE9"/>
<path d="M4.71977 77.2117C2.11312 77.2117 8.23504e-06 75.1022 8.49395e-06 72.4999C8.75286e-06 69.8976 2.11312 67.7881 4.71977 67.7881C7.32643 67.7881 9.43955 69.8976 9.43955 72.4999C9.43955 75.1022 7.32643 77.2117 4.71977 77.2117Z" fill="#AB7FE9"/>
<path d="M4.71977 111.106C2.11311 111.106 2.01459e-07 108.996 4.60372e-07 106.394C7.19285e-07 103.792 2.11311 101.682 4.71977 101.682C7.32642 101.682 9.43953 103.792 9.43953 106.394C9.43953 108.996 7.32642 111.106 4.71977 111.106Z" fill="#AB7FE9"/>
<path d="M4.71976 145C2.11311 145 -2.02722e-07 142.89 5.61904e-08 140.288C3.15103e-07 137.686 2.11311 135.576 4.71976 135.576C7.32642 135.576 9.43953 137.686 9.43953 140.288C9.43953 142.89 7.32642 145 4.71976 145Z" fill="#AB7FE9"/>
</svg>
