<svg width="124" height="127" viewBox="0 0 124 127" fill="none" xmlns="http://www.w3.org/2000/svg">
<path d="M0.914062 117.862L2.54433 121.53L61.0303 97.2797L71.2195 98.5024L74.8877 109.71L69.9968 114.398C68.1628 116.028 67.5514 118.677 68.5704 121.122L70.6082 126.217L104.436 112.971L102.602 108.08C101.787 105.635 99.5455 104.208 96.8963 104.208H90.1715L86.5033 95.4456L95.4698 90.9624C98.3228 89.5359 99.5455 86.2753 98.5266 83.4224L86.9109 52.2434C85.6882 48.9829 82.2239 47.5564 78.9633 48.5753C78.9633 48.5753 78.7595 48.5753 78.7595 48.7791L70.2006 52.4472L68.9779 49.3904L73.6649 43.8883C76.9255 40.2202 78.9633 35.7369 79.5747 30.8461L85.4844 23.7136C89.3563 19.2304 88.5412 12.5055 84.0579 8.63364C83.2428 8.02228 82.4277 7.41093 81.6125 7.00336C79.3709 5.98444 77.1293 5.78066 74.6839 6.39201L74.0725 4.55796C73.0536 1.29741 69.3855 -0.33286 66.3287 0.889844L23.3303 16.3774C20.0698 17.6001 18.4395 21.0645 19.6622 24.1212V24.325L20.6811 26.9742C15.3827 29.4196 12.9373 35.5331 14.7714 40.8315C16.1979 44.9072 19.866 47.7602 24.1454 48.3715L33.7233 49.3904C37.5952 52.2434 42.2822 54.0775 46.9692 54.485L53.6941 55.0964L54.9168 58.1531C53.4903 58.9683 52.4714 60.3948 52.0638 62.2288L50.6374 69.1575L0.914062 89.3321L2.34055 93.204L30.8703 81.7921L37.799 102.578L0.914062 117.862ZM98.5266 109.303L98.9342 110.526L72.8498 120.919L72.2385 119.696C72.0347 118.881 72.2385 118.066 72.646 117.454L79.5747 110.933L88.3374 108.08H96.4888C97.5077 108.08 98.119 108.488 98.5266 109.303ZM85.6882 104.412L78.352 106.858L75.7028 99.1137C76.9255 99.3175 77.9444 99.1137 78.9633 98.5024L82.4277 96.8721L85.6882 104.412ZM80.186 51.8358C81.205 51.4283 82.4277 51.8358 82.8352 52.8548L84.4655 57.1342L74.4801 60.3948L75.7028 64.2667L85.6882 61.0061L88.1336 67.5272L78.5558 70.7878L79.7785 74.6597L89.5601 71.3991L92.0055 77.9202L82.6314 80.977L83.8541 84.8489L93.432 81.5883L94.4509 84.2375C94.8585 85.2564 94.4509 86.2753 93.432 86.6829L77.3331 94.6305C76.9255 94.8343 76.5179 94.8343 76.1104 94.8343L62.253 93.204L54.713 70.584L56.1395 63.044C56.3433 62.4326 56.7509 61.8213 57.3622 61.6175L80.186 51.8358ZM79.9823 10.6715C83.2428 12.098 84.8731 15.9699 83.4466 19.4342C83.2428 20.0455 82.8352 20.4531 82.4277 21.0645L79.9823 24.1212C79.7785 22.0834 79.3709 20.2493 78.7595 18.2115L76.1104 10.2639C77.5368 10.0601 78.7596 10.2639 79.9823 10.6715ZM18.8471 39.8126C17.6243 36.3483 19.0508 32.6801 22.3114 31.0499L25.1644 37.9785C26.1833 40.4239 27.6098 42.8693 29.24 44.9072L24.9606 44.4996C22.1076 44.2958 19.6622 42.4618 18.8471 39.8126ZM47.7844 50.6131C39.4292 49.798 32.093 44.4996 29.0363 36.552L23.7379 23.1023C23.3303 22.0834 23.7379 20.8607 24.7568 20.4531L67.7552 4.96552C68.3666 4.76174 68.7741 4.76174 69.3855 4.96552C69.7931 5.16931 70.2006 5.57688 70.4044 6.18823L74.8877 19.638C77.3331 27.178 75.7028 35.3293 70.6082 41.2391L64.2909 48.5753L66.1249 53.4661L58.7887 56.5229L56.7509 51.4283L47.7844 50.6131ZM34.7422 80.1618L39.4292 78.3278L44.5238 93.8153L48.3957 92.5926L43.0973 76.6975L51.2487 73.4369L58.1774 94.0191L41.6709 100.948L34.7422 80.1618Z" fill="url(#paint0_linear_531_4578)"/>
<path d="M101.582 36.1445V38.1824H105.657V36.1445C105.657 30.4386 110.141 25.9553 115.847 25.9553V21.8796C110.141 21.8796 105.657 17.3964 105.657 11.6904V9.65259H101.582V11.6904C101.582 17.3964 97.0985 21.8796 91.3926 21.8796V25.9553C97.0985 25.9553 101.582 30.4386 101.582 36.1445ZM103.62 19.0267C104.842 21.0645 106.473 22.6948 108.51 23.9175C106.473 25.1402 104.842 26.7704 103.62 28.8083C102.397 26.7704 100.767 25.1402 98.7288 23.9175C100.767 22.6948 102.397 21.0645 103.62 19.0267Z" fill="url(#paint1_linear_531_4578)"/>
<path d="M11.9177 76.9011V78.9389H15.9934V76.9011C15.9934 71.1951 20.4766 66.7119 26.1826 66.7119V62.6362C20.4766 62.6362 15.9934 58.153 15.9934 52.447V50.4092H11.9177V52.447C11.9177 58.153 7.43447 62.6362 1.72852 62.6362V66.7119C7.43447 66.7119 11.9177 71.1951 11.9177 76.9011ZM13.9556 59.7832C15.1783 61.8211 16.8085 63.4514 18.8464 64.6741C16.8085 65.8968 15.1783 67.527 13.9556 69.5649C12.7329 67.527 11.1026 65.8968 9.06474 64.6741C11.1026 63.4514 12.7329 61.8211 13.9556 59.7832Z" fill="url(#paint2_linear_531_4578)"/>
<path d="M113.811 52.447V50.4092H109.735V52.447C109.735 58.153 105.252 62.6362 99.5459 62.6362V66.7119C105.252 66.7119 109.735 71.1951 109.735 76.9011V78.9389H113.811V76.9011C113.811 71.1951 118.294 66.7119 124 66.7119V62.6362C118.294 62.6362 113.811 58.153 113.811 52.447ZM111.773 69.5649C110.55 67.527 108.92 65.8968 106.882 64.6741C108.92 63.4514 110.55 61.8211 111.773 59.7832C112.996 61.8211 114.626 63.4514 116.664 64.6741C114.626 65.8968 112.996 67.527 111.773 69.5649Z" fill="url(#paint3_linear_531_4578)"/>
<path d="M61.4378 36.7557L64.2908 39.6087C75.4989 28.4006 65.106 11.2827 64.4946 10.6714L61.0303 12.913C61.2341 12.913 70.4043 27.7892 61.4378 36.7557Z" fill="url(#paint4_linear_531_4578)"/>
<defs>
<linearGradient id="paint0_linear_531_4578" x1="52.6752" y1="0.483887" x2="52.6752" y2="126.217" gradientUnits="userSpaceOnUse">
<stop stop-color="#F35383"/>
<stop offset="1" stop-color="#CB1CB1"/>
</linearGradient>
<linearGradient id="paint1_linear_531_4578" x1="103.62" y1="9.65259" x2="103.62" y2="38.1823" gradientUnits="userSpaceOnUse">
<stop stop-color="#F35383"/>
<stop offset="1" stop-color="#CB1CB1"/>
</linearGradient>
<linearGradient id="paint2_linear_531_4578" x1="13.9556" y1="50.4092" x2="13.9556" y2="78.9389" gradientUnits="userSpaceOnUse">
<stop stop-color="#F35383"/>
<stop offset="1" stop-color="#CB1CB1"/>
</linearGradient>
<linearGradient id="paint3_linear_531_4578" x1="111.773" y1="50.4092" x2="111.773" y2="78.9389" gradientUnits="userSpaceOnUse">
<stop stop-color="#F35383"/>
<stop offset="1" stop-color="#CB1CB1"/>
</linearGradient>
<linearGradient id="paint4_linear_531_4578" x1="65.2485" y1="10.6714" x2="65.2485" y2="39.6087" gradientUnits="userSpaceOnUse">
<stop stop-color="#F35383"/>
<stop offset="1" stop-color="#CB1CB1"/>
</linearGradient>
</defs>
</svg>
